<svg id="Layer_1" data-name="Layer 1" xmlns="http://www.w3.org/2000/svg" viewBox="0 0 72 72"><defs><style>.cls-1{fill:#fff;}</style></defs><path d="M72,36A36,36,0,1,1,36,72v-.09A36,36,0,0,1,72,36ZM38.73,71.84a33,33,0,1,0,0-.11Z" transform="translate(-36.03 -36)"/><path class="cls-1" d="M38.73,71.84a33.25,33.25,0,1,1,33.16,33.34c-.42,0-.85,0-1.27,0A33.26,33.26,0,0,1,38.73,71.84Zm37.4,4.23H88.38a5.66,5.66,0,0,0,1.42-.14,4.08,4.08,0,0,0-1-8c-3.8-.05-7.6,0-11.4,0-1,0-1.31-.26-1.3-1.27q.09-5.4,0-10.79a5.42,5.42,0,0,0-.56-2.4,4.13,4.13,0,0,0-7.7,2V66.38a11.87,11.87,0,0,1-.07,1.52H55.45a4.1,4.1,0,1,0-.3,8.19H66.46a10.15,10.15,0,0,1,1.39.07v12a5.59,5.59,0,0,0,.55,2.41,4.13,4.13,0,0,0,7.7-2V77.63Z" transform="translate(-36.03 -36)"/><path d="M76.13,76.07V88.52a4.13,4.13,0,0,1-7.7,2,5.59,5.59,0,0,1-.55-2.41c-.06-3.47,0-7,0-10.43V76.14c-.55,0-1-.07-1.39-.07h-11a4.1,4.1,0,1,1-.48-8.19H67.76c0-.58.07-1,.07-1.52V55.45a4.13,4.13,0,0,1,7.7-2,5.42,5.42,0,0,1,.56,2.4q.09,5.38,0,10.79c0,1,.32,1.29,1.3,1.27,3.8,0,7.6,0,11.4,0a4.08,4.08,0,0,1,1,8,5.66,5.66,0,0,1-1.42.14H76.13Z" transform="translate(-36.03 -36)"/></svg>